<?xml version="1.0"?>
<svg width="30" height="30" xmlns="http://www.w3.org/2000/svg" xmlns:svg="http://www.w3.org/2000/svg">
  <g id="mine" style="fill: black; stroke: black;">
    <circle cx="15" cy="15" id="svg_1" r="8" />
    <path stroke-width="2" d="M15 3 L15 27" />
    <path stroke-width="2" d="M3 15 L27 15" />
    <g stroke="none">
      <circle cx="8" cy="8" r="1" />
      <circle cx="22" cy="8" r="1" />
      <circle cx="22" cy="22" r="1" />
      <circle cx="8" cy="22" r="1" />
      <circle cx="12" cy="11" r="1.5" fill="white" />
    </g>
  </g>
  <g id="cross" style="stroke-width:2; stroke:red;">
    <rect x="0" y="0" width="1" height="1" />
    <rect x="3" y="3" width="1" height="1" />
    <rect x="6" y="6" width="1" height="1" />
    <rect x="9" y="9" width="1" height="1" />
    <rect x="12" y="12" width="1" height="1" />
    <rect x="15" y="15" width="1" height="1" />
    <rect x="18" y="18" width="1" height="1" />
    <rect x="21" y="21" width="1" height="1" />
    <rect x="24" y="24" width="1" height="1" />
    <rect x="27" y="27" width="1" height="1" />
    <rect x="30" y="30" width="1" height="1" />
    <rect x="30" y="0" width="1" height="1" />
    <rect x="27" y="3" width="1" height="1" />
    <rect x="24" y="6" width="1" height="1" />
    <rect x="21" y="9" width="1" height="1" />
    <rect x="18" y="12" width="1" height="1" />
    <rect x="15" y="15" width="1" height="1" />
    <rect x="12" y="18" width="1" height="1" />
    <rect x="9" y="21" width="1" height="1" />
    <rect x="6" y="24" width="1" height="1" />
    <rect x="3" y="27" width="1" height="1" />
    <rect x="0" y="30" width="1" height="1" />
  </g>
</svg>
