<?xml version="1.0"?>
<svg width="7" height="7" xmlns="http://www.w3.org/2000/svg" xmlns:svg="http://www.w3.org/2000/svg">
  <g class="font" style="fill:rgb(220,220,220)">
    <rect x="0" y="6" width="1" height="1" />
    <rect x="1" y="5" width="1" height="1" />
    <rect x="2" y="4" width="1" height="1" />
    <rect x="3" y="3" width="1" height="1" />
    <rect x="4" y="2" width="1" height="1" />
    <rect x="5" y="1" width="1" height="1" />
    <rect x="6" y="0" width="1" height="1" />
    <rect x="0" y="0" width="1" height="1" />
    <rect x="1" y="1" width="1" height="1" />
    <rect x="2" y="2" width="1" height="1" />
    <rect x="4" y="4" width="1" height="1" />
    <rect x="5" y="5" width="1" height="1" />
    <rect x="6" y="6" width="1" height="1" />
  </g>
    <g class="font" style="fill:red">
      <rect x="0" y="2" width="1" height="1" />
      <rect x="1" y="1" width="1" height="2" />
      <rect x="2" y="1" width="1" height="3" />
      <rect x="3" y="0" width="1" height="4" />
      <rect x="4" y="0" width="1" height="4" />
    </g>
    <g class="font" style="fill:black">
      <rect x="4" y="4" width="1" height="1" />
      <rect x="1" y="5" width="5" height="1" />
      <rect x="0" y="6" width="7" height="1" />
  </g>
</svg>
