<svg xmlns="http://www.w3.org/2000/svg">
  <g id="tile" style="stroke-width:0;">
    <rect x="3" y="3" width="29" height="29" style="fill:rgb(192,192,192); stroke-width:0;" />
    <polygon points="32,0 32,32 0,32 3,29 29,29 29,3" style="fill:rgb(160,160,160); stroke-width:0;" />
    <polygon points="0,0 32,0 29,3 3,3 3,29 0,32" style="fill:rgb(250,250,250); stroke-width:0;" />
  </g>
  <g id="flag">
    <polygon points="7,8 7,11 10,11 10,8" style="fill:red" />
    <polygon points="10,6.5 10,13.5 14,13.5 14,6.5" style="fill:red" />
    <polygon points="14,5 14,15 19,15 19,5" style="fill: red" />
  </g>
  <g id="pole">
    <polygon points="16,15 16,20 19,20 19,15" style="fill: black" />
    <polygon points="9,20 9,23 23,23 23,20" style="fill: black" /> <!-- -->
    <polygon points="6,23 6,27 26,27 26,23" style="fill: black" />
  </g>
</svg>
