<?xml version="1.0"?>
<svg width="12" height="22" xmlns="http://www.w3.org/2000/svg" xmlns:svg="http://www.w3.org/2000/svg">
  <g class="panel" style="fill:black"> <rect x="0" y="0" width="12" height="22" /> </g>
  <g class="arms" style="stroke:red">
    <g class="a1">
      <line x1="1.5" y1="0.5" x2="10.5" y2="0.5" />
      <line x1="2.5" y1="1.5" x2="9.5" y2="1.5" />
      <line x1="3.5" y1="2.5" x2="8.5" y2="2.5" />
    </g>
    <g class="a2" style="stroke-opacity:0.5; stroke-dasharray:1;">
      <line x1="0.5" y1="1.5" x2="0.5" y2="10.5" />
      <line x1="1.5" y1="2.5" x2="1.5" y2="9.5" />
      <line x1="2.5" y1="3.5" x2="2.5" y2="8.5" />
    </g>
    <g class="a3">
      <line x1="9.5" y1="3.5" x2="9.5" y2="8.5" />
      <line x1="10.5" y1="2.5" x2="10.5" y2="9.5" />
      <line x1="11.5" y1="1.5" x2="11.5" y2="10.5" />
    </g>
    <g class="a4" style="stroke-opacity:0.5; stroke-dasharray:1;">
      <line x1="2.5" y1="10" x2="9.5" y2="10" />
      <line x1="1.5" y1="11.0" x2="10.5" y2="11.0" />
      <line x1="2.5" y1="12" x2="9.5" y2="12" />
    </g>
    <g class="a5" style="stroke-opacity:0.5; stroke-dasharray:1;">
      <line x1="0.5" y1="11.5" x2="0.5" y2="20.5" />
      <line x1="1.5" y1="12.5" x2="1.5" y2="19.5" />
      <line x1="2.5" y1="13.5" x2="2.5" y2="18.5" />
    </g>
    <g class="a6">
      <line x1="9.5" y1="13.5" x2="9.5" y2="18.5" />
      <line x1="10.5" y1="12.5" x2="10.5" y2="19.5" />
      <line x1="11.5" y1="11.5" x2="11.5" y2="20.5" />
    </g>
    <g class="a7" style="stroke-opacity:0.5; stroke-dasharray:1;">
      <line x1="3.5" y1="19.5" x2="8.5" y2="19.5" />
      <line x1="2.5" y1="20.5" x2="9.5" y2="20.5" />
      <line x1="1.5" y1="21.5" x2="10.5" y2="21.5" />
    </g>
  </g>
</svg>
